<svg width="323.3" height="72.501" viewBox="0 0 323.3 72.501" xmlns="http://www.w3.org/2000/svg"><g id="svgGroup" stroke-linecap="round" fill-rule="evenodd" font-size="9pt" stroke="#f2f2f2" stroke-width="0mm" fill="#f2f2f2" style="stroke:#f2f2f2;stroke-width:0mm;fill:#f2f2f2"><path d="M 73.2 71.601 L 53.7 71.601 L 53.7 34.201 L 41.8 60.501 L 31.4 60.501 L 19.5 34.201 L 19.5 71.601 L 0 71.601 L 0 0.601 L 21.3 0.601 L 36.6 34.001 L 52 0.601 L 73.2 0.601 L 73.2 71.601 Z M 230 54.601 L 261.1 54.601 L 261.1 71.601 L 210.5 71.601 L 210.5 0.601 L 260.2 0.601 L 260.2 17.601 L 230 17.601 L 230 27.601 L 255.8 27.601 L 255.8 43.401 L 230 43.401 L 230 54.601 Z M 321.6 7.701 L 313.2 23.801 L 311.5 22.801 A 29.72 29.72 0 0 0 310.201 22.084 Q 309.519 21.727 308.719 21.344 A 71.087 71.087 0 0 0 307 20.551 A 48.546 48.546 0 0 0 303.305 19.086 A 57.916 57.916 0 0 0 300.9 18.301 A 22.885 22.885 0 0 0 295.805 17.348 A 20.733 20.733 0 0 0 294.4 17.301 A 12.857 12.857 0 0 0 292.719 17.404 Q 291.851 17.519 291.125 17.761 A 6.315 6.315 0 0 0 290.3 18.101 A 2.931 2.931 0 0 0 289.294 18.893 Q 288.844 19.461 288.735 20.264 A 3.986 3.986 0 0 0 288.7 20.801 A 3.27 3.27 0 0 0 289.839 23.34 A 4.568 4.568 0 0 0 290.3 23.701 Q 291.9 24.801 294.85 25.701 A 500.671 500.671 0 0 1 297.224 26.432 Q 298.281 26.76 299.45 27.127 A 957.826 957.826 0 0 1 301.9 27.901 A 74.731 74.731 0 0 1 307.33 29.765 Q 310.6 31.038 313.3 32.501 A 21.836 21.836 0 0 1 317.751 35.646 A 18.016 18.016 0 0 1 320.7 39.151 A 15.006 15.006 0 0 1 322.522 43.365 Q 323.3 46.237 323.3 49.901 A 29.609 29.609 0 0 1 322.949 54.588 Q 322.402 58 321 60.651 Q 318.7 65.001 314.8 67.601 Q 310.9 70.201 306.1 71.351 Q 301.3 72.501 296.3 72.501 Q 291.2 72.501 285.65 71.451 Q 280.1 70.401 274.9 68.551 A 59.457 59.457 0 0 1 268.175 65.7 A 50.972 50.972 0 0 1 265.4 64.201 L 273.8 47.101 L 275.8 48.301 A 34.546 34.546 0 0 0 277.329 49.161 Q 278.934 50.016 281.1 51.001 A 51.67 51.67 0 0 0 285.283 52.676 A 65.004 65.004 0 0 0 288.45 53.701 Q 292.5 54.901 296.6 54.901 Q 299.8 54.901 301.05 54.051 A 3.133 3.133 0 0 0 301.787 53.369 A 2.509 2.509 0 0 0 302.3 51.801 A 3.286 3.286 0 0 0 301.01 49.142 A 5.384 5.384 0 0 0 300.1 48.551 Q 298.505 47.717 296.201 46.936 A 49.542 49.542 0 0 0 294.35 46.351 Q 290.8 45.301 286.5 43.901 A 59.125 59.125 0 0 1 282.159 42.248 Q 278.8 40.807 276.3 39.151 A 19.534 19.534 0 0 1 272.918 36.349 A 15.338 15.338 0 0 1 270.4 32.851 A 16.105 16.105 0 0 1 268.917 28.535 Q 268.539 26.635 268.504 24.455 A 27.911 27.911 0 0 1 268.5 24.001 A 27.896 27.896 0 0 1 269.111 18.011 A 19.909 19.909 0 0 1 272.2 10.801 Q 275.9 5.501 281.95 2.751 A 31.15 31.15 0 0 1 294.945 0.001 A 35.575 35.575 0 0 1 295 0.001 Q 300.2 0.001 305.05 1.251 A 66.491 66.491 0 0 1 312.262 3.539 A 58.963 58.963 0 0 1 314.15 4.301 A 162.284 162.284 0 0 1 317.668 5.837 Q 319.267 6.56 320.679 7.247 A 93.512 93.512 0 0 1 321.6 7.701 Z M 78.7 0.601 L 99.8 0.601 L 112.5 29.601 L 125.5 0.601 L 146.7 0.601 L 122.2 48.101 L 122.2 71.601 L 102.8 71.601 L 102.8 47.901 L 78.7 0.601 Z M 203.7 71.601 L 152 71.601 L 152 0.601 L 171.5 0.601 L 171.5 54.601 L 203.7 54.601 L 203.7 71.601 Z" vector-effect="non-scaling-stroke"/></g></svg>