<svg width="1452.1" height="72.102" viewBox="0 0 1452.1 72.102" xmlns="http://www.w3.org/2000/svg"><g id="svgGroup" stroke-linecap="round" fill-rule="evenodd" font-size="9pt" stroke="#4fc963" stroke-width="0mm" fill="#4fc963" style="stroke:#4fc963;stroke-width:0mm;fill:#4fc963"><path d="M 663.3 31.301 L 650.9 1.001 L 657.5 1.001 L 667.5 26.201 L 677.6 1.001 L 684.3 1.001 L 671.9 31.301 L 685.5 63.401 L 711.2 0.501 L 718.8 0.501 L 688.7 71.501 L 682.5 71.501 L 667.6 36.401 L 652.6 71.501 L 646.5 71.501 L 616.5 0.501 L 624 0.501 L 649.8 63.401 L 663.3 31.301 Z M 735.8 65.301 L 776.5 65.301 L 776.5 71.501 L 728.8 71.501 L 728.8 0.501 L 775.6 0.501 L 775.6 6.701 L 735.8 6.701 L 735.8 32.301 L 770.5 32.301 L 770.5 38.201 L 735.8 38.201 L 735.8 65.301 Z M 960.3 65.301 L 1001 65.301 L 1001 71.501 L 953.3 71.501 L 953.3 0.501 L 1000.1 0.501 L 1000.1 6.701 L 960.3 6.701 L 960.3 32.301 L 995 32.301 L 995 38.201 L 960.3 38.201 L 960.3 65.301 Z M 1089.1 65.301 L 1129.8 65.301 L 1129.8 71.501 L 1082.1 71.501 L 1082.1 0.501 L 1128.9 0.501 L 1128.9 6.701 L 1089.1 6.701 L 1089.1 32.301 L 1123.8 32.301 L 1123.8 38.201 L 1089.1 38.201 L 1089.1 65.301 Z M 1345.6 65.301 L 1386.3 65.301 L 1386.3 71.501 L 1338.6 71.501 L 1338.6 0.501 L 1385.4 0.501 L 1385.4 6.701 L 1345.6 6.701 L 1345.6 32.301 L 1380.3 32.301 L 1380.3 38.201 L 1345.6 38.201 L 1345.6 65.301 Z M 541.4 71.501 L 534.4 71.501 L 534.4 0.601 L 541.4 0.601 L 541.4 41.801 L 580.5 0.501 L 588.2 0.501 L 559.2 31.701 L 589.7 71.501 L 581.8 71.501 L 554.7 35.901 L 541.4 49.701 L 541.4 71.501 Z M 321.4 8.201 L 318 13.801 Q 316.5 12.101 314.5 10.751 A 22.639 22.639 0 0 0 311.514 9.06 A 26.815 26.815 0 0 0 310 8.401 A 31.579 31.579 0 0 0 305.706 7.04 A 35.702 35.702 0 0 0 304.65 6.801 Q 301.8 6.201 298.6 6.201 A 38.759 38.759 0 0 0 293.76 6.482 Q 288.487 7.148 285.415 9.392 A 10.975 10.975 0 0 0 284.95 9.751 A 11.555 11.555 0 0 0 280.641 18.234 A 16.116 16.116 0 0 0 280.6 19.401 A 13.88 13.88 0 0 0 280.839 22.062 Q 281.142 23.61 281.827 24.823 A 7.456 7.456 0 0 0 282.65 26.001 A 10.23 10.23 0 0 0 284.751 27.834 Q 286.522 29.022 289.1 29.901 A 82.067 82.067 0 0 0 292.572 30.992 Q 295.944 31.976 300.3 33.001 Q 306.831 34.376 311.812 36.194 A 55.803 55.803 0 0 1 313.4 36.801 A 24.783 24.783 0 0 1 317.596 38.933 Q 320.156 40.577 321.886 42.734 A 15.694 15.694 0 0 1 321.9 42.751 A 12.872 12.872 0 0 1 324.219 47.403 Q 324.9 49.851 324.9 52.901 A 21.296 21.296 0 0 1 324.51 57.075 A 15.873 15.873 0 0 1 323 61.401 Q 321.1 65.001 317.7 67.401 A 21.782 21.782 0 0 1 312.81 69.963 A 27.712 27.712 0 0 1 309.6 70.951 A 39.888 39.888 0 0 1 303.373 71.939 A 49.883 49.883 0 0 1 299.3 72.101 A 47.702 47.702 0 0 1 289.542 71.124 A 44.12 44.12 0 0 1 288.75 70.951 Q 283.7 69.801 279.2 67.551 Q 274.7 65.301 270.8 61.801 L 274.3 56.101 Q 276.2 58.101 278.85 59.851 A 35.99 35.99 0 0 0 282.777 62.092 A 42.456 42.456 0 0 0 284.75 63.001 A 34.34 34.34 0 0 0 290.59 64.901 A 38.909 38.909 0 0 0 291.75 65.151 Q 295.5 65.901 299.5 65.901 Q 305.078 65.901 309.041 64.566 A 16.235 16.235 0 0 0 312.75 62.801 Q 317.5 59.701 317.5 53.601 A 13.106 13.106 0 0 0 317.176 50.606 A 8.975 8.975 0 0 0 315.1 46.551 A 12.747 12.747 0 0 0 312.648 44.484 Q 310.675 43.184 307.9 42.201 Q 304.225 40.899 299.26 39.656 A 157.832 157.832 0 0 0 296.1 38.901 A 108.198 108.198 0 0 1 290.873 37.57 Q 288.32 36.847 286.117 36.063 A 55.291 55.291 0 0 1 283.6 35.101 A 22.649 22.649 0 0 1 280.005 33.254 Q 277.504 31.653 275.95 29.551 Q 273.709 26.519 273.437 21.748 A 23.727 23.727 0 0 1 273.4 20.401 A 22.239 22.239 0 0 1 274.011 15.063 A 16.83 16.83 0 0 1 276.65 9.251 A 19.533 19.533 0 0 1 283.713 3.224 A 24.193 24.193 0 0 1 285.6 2.351 Q 291.3 0.001 298.7 0.001 A 41.031 41.031 0 0 1 304.321 0.372 A 34.223 34.223 0 0 1 307.45 0.951 A 32.316 32.316 0 0 1 313.968 3.212 A 29.61 29.61 0 0 1 314.95 3.701 Q 318.4 5.501 321.4 8.201 Z M 57.9 36.301 L 57.9 0.501 L 64.8 0.501 L 64.8 36.301 Q 64.8 41.801 65.95 47.101 A 31.36 31.36 0 0 0 68.2 53.833 A 27.54 27.54 0 0 0 69.7 56.601 Q 72.3 60.801 76.7 63.251 Q 80.653 65.452 86.382 65.676 A 33.803 33.803 0 0 0 87.7 65.701 A 29.933 29.933 0 0 0 92.47 65.342 Q 96.169 64.745 98.95 63.151 Q 103.4 60.601 105.95 56.401 A 29.08 29.08 0 0 0 109.137 48.883 A 33.924 33.924 0 0 0 109.6 46.951 Q 110.7 41.701 110.7 36.301 L 110.7 0.501 L 117.7 0.501 L 117.7 36.301 A 57.041 57.041 0 0 1 116.317 48.984 A 52.985 52.985 0 0 1 116.1 49.901 A 34.417 34.417 0 0 1 113.338 57.401 A 29.805 29.805 0 0 1 110.95 61.301 A 25.384 25.384 0 0 1 102.054 68.918 A 29.447 29.447 0 0 1 101.7 69.101 Q 96.388 71.803 88.905 71.988 A 44.953 44.953 0 0 1 87.8 72.001 A 39.092 39.092 0 0 1 81.404 71.506 Q 77.861 70.918 74.924 69.632 A 22.67 22.67 0 0 1 73.6 69.001 A 25.19 25.19 0 0 1 66.792 63.941 A 23.254 23.254 0 0 1 64.4 60.951 Q 61 55.901 59.45 49.501 Q 57.9 43.101 57.9 36.301 Z M 521 15.601 L 515.5 19.001 A 24.038 24.038 0 0 0 512.923 14.818 A 18.712 18.712 0 0 0 509.7 11.551 A 23.34 23.34 0 0 0 504.197 8.298 A 21.247 21.247 0 0 0 502.25 7.601 A 27.025 27.025 0 0 0 494.888 6.406 A 25.384 25.384 0 0 0 494.4 6.401 Q 488 6.401 483.1 8.951 Q 478.2 11.501 474.85 15.751 Q 471.5 20.001 469.8 25.251 Q 468.1 30.501 468.1 35.901 Q 468.1 41.801 470.1 47.201 Q 472.1 52.601 475.7 56.751 Q 479.3 60.901 484.15 63.351 Q 489 65.801 494.7 65.801 Q 498.7 65.801 502.9 64.401 Q 507.1 63.001 510.75 60.101 A 20.422 20.422 0 0 0 515.839 54.065 A 24.417 24.417 0 0 0 516.6 52.601 L 522.4 55.601 Q 520.2 60.901 515.6 64.601 Q 511 68.301 505.35 70.201 A 36.325 36.325 0 0 1 497.871 71.896 A 31.579 31.579 0 0 1 494.3 72.101 Q 487 72.101 480.9 68.951 Q 474.8 65.801 470.35 60.551 Q 465.9 55.301 463.5 48.751 Q 461.1 42.201 461.1 35.501 Q 461.1 29.001 463.35 22.751 Q 465.6 16.501 469.9 11.351 Q 474.2 6.201 480.5 3.151 A 30.483 30.483 0 0 1 490.2 0.37 A 38.342 38.342 0 0 1 494.8 0.101 Q 504.3 0.101 511.05 4.451 A 27.701 27.701 0 0 1 518.311 11.123 A 25.709 25.709 0 0 1 521 15.601 Z M 1006.6 0.501 L 1013.9 0.501 L 1039.3 62.801 L 1064.6 0.501 L 1071.9 0.501 L 1042.5 71.501 L 1036.1 71.501 L 1006.6 0.501 Z M 7 71.501 L 0 71.501 L 0 0.501 L 46.6 0.501 L 46.6 6.701 L 7 6.701 L 7 32.801 L 40.4 32.801 L 40.4 38.601 L 7 38.601 L 7 71.501 Z M 1406.5 71.501 L 1399.5 71.501 L 1399.5 0.501 L 1429.5 0.501 A 19.356 19.356 0 0 1 1435.193 1.319 A 17.476 17.476 0 0 1 1437.9 2.401 Q 1441.7 4.301 1444.55 7.551 Q 1447.4 10.801 1448.95 14.751 Q 1450.5 18.701 1450.5 22.801 Q 1450.5 27.901 1448.55 32.401 Q 1446.6 36.901 1443.05 40.001 Q 1439.5 43.101 1434.7 44.101 L 1452.1 71.501 L 1444.2 71.501 L 1427.5 45.301 L 1406.5 45.301 L 1406.5 71.501 Z M 387.6 0.501 L 387.6 6.701 L 362.3 6.701 L 362.3 71.501 L 355.3 71.501 L 355.3 6.701 L 330 6.701 L 330 0.501 L 387.6 0.501 Z M 390.5 71.501 L 420.2 0.501 L 426.1 0.501 L 455.6 71.501 L 448.2 71.501 L 439 49.301 L 407.1 49.301 L 398 71.501 L 390.5 71.501 Z M 823.2 71.501 L 789.7 71.501 L 789.7 0.501 L 823.9 0.501 Q 828.9 0.501 832.55 3.151 Q 836.2 5.801 838.15 9.951 Q 840.1 14.101 840.1 18.601 Q 840.1 23.901 837.4 28.401 Q 834.7 32.901 829.9 35.101 A 18.43 18.43 0 0 1 836.458 38.504 A 17.583 17.583 0 0 1 839.55 41.801 A 18.697 18.697 0 0 1 843.078 52.195 A 23.141 23.141 0 0 1 843.1 53.201 A 17.73 17.73 0 0 1 842.045 59.377 A 16.352 16.352 0 0 1 840.4 62.651 Q 837.7 66.801 833.15 69.151 A 21.323 21.323 0 0 1 823.369 71.5 A 24.732 24.732 0 0 1 823.2 71.501 Z M 182.4 71.501 L 134.4 71.501 L 134.4 0.501 L 141.4 0.501 L 141.4 65.301 L 182.4 65.301 L 182.4 71.501 Z M 240.7 71.501 L 192.7 71.501 L 192.7 0.501 L 199.7 0.501 L 199.7 65.301 L 240.7 65.301 L 240.7 71.501 Z M 1191 71.501 L 1143 71.501 L 1143 0.501 L 1150 0.501 L 1150 65.301 L 1191 65.301 L 1191 71.501 Z M 905.9 71.501 L 881.8 71.501 L 881.8 0.501 L 905.9 0.501 A 44.537 44.537 0 0 1 914.156 1.226 Q 920.149 2.356 924.75 5.251 Q 932.3 10.001 936.1 18.051 A 40.083 40.083 0 0 1 939.764 32.251 A 48.14 48.14 0 0 1 939.9 35.901 A 47.368 47.368 0 0 1 939.003 45.337 A 35.618 35.618 0 0 1 935.75 54.701 Q 931.6 62.701 923.95 67.101 A 32.642 32.642 0 0 1 912.725 70.981 A 43.183 43.183 0 0 1 905.9 71.501 Z M 1283.4 71.501 L 1276.4 71.501 L 1276.4 0.501 L 1305.8 0.501 A 19.403 19.403 0 0 1 1312.025 1.483 A 17.952 17.952 0 0 1 1314.25 2.401 Q 1318.1 4.301 1320.9 7.551 Q 1323.7 10.801 1325.3 14.751 Q 1326.9 18.701 1326.9 22.801 Q 1326.9 28.601 1324.35 33.751 Q 1321.8 38.901 1317.2 42.101 A 17.876 17.876 0 0 1 1308.484 45.206 A 22.541 22.541 0 0 1 1306.4 45.301 L 1283.4 45.301 L 1283.4 71.501 Z M 1221.279 70.887 A 32.382 32.382 0 0 0 1229.9 72.001 Q 1237 72.001 1243.1 69.101 Q 1249.2 66.201 1253.7 61.151 Q 1258.2 56.101 1260.7 49.651 Q 1263.2 43.201 1263.2 36.101 Q 1263.2 29.401 1260.8 23.001 Q 1258.4 16.601 1254.05 11.401 Q 1249.7 6.201 1243.6 3.101 A 27.625 27.625 0 0 0 1238.802 1.204 A 31.319 31.319 0 0 0 1230 0.001 Q 1222.9 0.001 1216.8 2.951 Q 1210.7 5.901 1206.15 10.951 Q 1201.6 16.001 1199.1 22.451 Q 1196.6 28.901 1196.6 36.001 Q 1196.6 42.801 1199 49.251 Q 1201.4 55.701 1205.8 60.851 Q 1210.2 66.001 1216.3 69.001 A 28.201 28.201 0 0 0 1221.279 70.887 Z M 905.9 6.701 L 888.8 6.701 L 888.8 65.301 L 905.9 65.301 Q 914.7 65.301 920.7 61.401 Q 926.7 57.501 929.8 50.851 A 33.138 33.138 0 0 0 932.655 40.439 A 41.025 41.025 0 0 0 932.9 35.901 Q 932.9 27.401 929.75 20.801 Q 926.6 14.201 920.6 10.451 A 23.98 23.98 0 0 0 912.523 7.32 A 33.695 33.695 0 0 0 905.9 6.701 Z M 1203.6 36.001 Q 1203.6 41.801 1205.5 47.151 Q 1207.4 52.501 1210.9 56.651 Q 1214.4 60.801 1219.25 63.251 Q 1224.1 65.701 1229.9 65.701 A 25.09 25.09 0 0 0 1236.367 64.894 A 21.426 21.426 0 0 0 1240.85 63.151 Q 1245.7 60.601 1249.15 56.351 Q 1252.6 52.101 1254.4 46.801 Q 1256.2 41.501 1256.2 36.001 Q 1256.2 30.201 1254.3 24.901 Q 1252.4 19.601 1248.85 15.401 Q 1245.3 11.201 1240.5 8.801 Q 1235.7 6.401 1229.9 6.401 A 24.813 24.813 0 0 0 1223.015 7.329 A 21.741 21.741 0 0 0 1219.05 8.901 Q 1214.2 11.401 1210.75 15.651 Q 1207.3 19.901 1205.45 25.201 Q 1203.6 30.501 1203.6 36.001 Z M 1406.5 6.701 L 1406.5 39.101 L 1429.7 39.101 A 12.89 12.89 0 0 0 1433.852 38.452 A 11.355 11.355 0 0 0 1437 36.801 A 15.053 15.053 0 0 0 1441.582 31.214 A 17.796 17.796 0 0 0 1441.8 30.751 Q 1443.5 27.001 1443.5 22.801 Q 1443.5 18.501 1441.55 14.851 Q 1439.6 11.201 1436.35 8.951 Q 1433.1 6.701 1429.1 6.701 L 1406.5 6.701 Z M 1283.4 6.701 L 1283.4 39.101 L 1306.1 39.101 A 12.89 12.89 0 0 0 1310.252 38.452 A 11.355 11.355 0 0 0 1313.4 36.801 A 15.218 15.218 0 0 0 1318.147 30.916 A 17.8 17.8 0 0 0 1318.2 30.801 A 18.868 18.868 0 0 0 1319.898 23.069 A 21.609 21.609 0 0 0 1319.9 22.801 Q 1319.9 18.401 1317.9 14.701 A 16.658 16.658 0 0 0 1314.737 10.512 A 15.147 15.147 0 0 0 1312.65 8.851 Q 1309.4 6.701 1305.5 6.701 L 1283.4 6.701 Z M 823.9 38.501 L 796.7 38.501 L 796.7 65.401 L 823.2 65.401 Q 826.8 65.401 829.7 63.501 Q 832.6 61.601 834.35 58.551 Q 836.1 55.501 836.1 52.001 Q 836.1 48.401 834.5 45.351 Q 832.9 42.301 830.15 40.401 Q 827.4 38.501 823.9 38.501 Z M 821.7 6.601 L 796.7 6.601 L 796.7 32.801 L 821.1 32.801 A 11.235 11.235 0 0 0 825.063 32.116 A 10.359 10.359 0 0 0 827.3 30.951 Q 830 29.101 831.6 26.101 Q 833.2 23.101 833.2 19.701 A 14.964 14.964 0 0 0 832.584 15.355 A 13.39 13.39 0 0 0 831.7 13.151 Q 830.2 10.201 827.6 8.401 Q 825 6.601 821.7 6.601 Z M 408.6 43.801 L 437.4 43.801 L 423.1 8.701 L 408.6 43.801 Z" vector-effect="non-scaling-stroke"/></g></svg>